<?xml version="1.0" encoding="UTF-8"?>
<!-- Generated by Pixelmator Pro 3.5.7 -->
<svg width="1024" height="1024" viewBox="0 0 1024 1024" xmlns="http://www.w3.org/2000/svg">
    <path id="Rectangle" fill="#ffffff" fill-rule="evenodd" stroke="none" d="M 0 1024 L 1024 1024 L 1024 0 L 0 0 Z"/>
    <g id="Group">
        <linearGradient id="linearGradient1" x1="335.967759" y1="708.214405" x2="348.071615" y2="320.15625" gradientUnits="userSpaceOnUse">
            <stop offset="0" stop-color="#6ac4dc" stop-opacity="1"/>
            <stop offset="1" stop-color="#89e6ff" stop-opacity="1"/>
        </linearGradient>
        <path id="Ellipse-copy" fill="url(#linearGradient1)" fill-rule="evenodd" stroke="none" opacity="0.15" style="mix-blend-mode:multiply" d="M 527 512 C 527 415.350159 448.649841 337 352 337 C 255.350159 337 177 415.350159 177 512 C 177 608.649841 255.350159 687 352 687 C 448.649841 687 527 608.649841 527 512 Z"/>
        <linearGradient id="linearGradient2" x1="442.092398" y1="722.997218" x2="442.092398" y2="304.163885" gradientUnits="userSpaceOnUse">
            <stop offset="0" stop-color="#6adcdc" stop-opacity="1"/>
            <stop offset="1" stop-color="#98ffff" stop-opacity="1"/>
        </linearGradient>
        <path id="Ellipse-copy-4" fill="url(#linearGradient2)" fill-rule="evenodd" stroke="none" opacity="0.25" style="mix-blend-mode:multiply" d="M 607 512 C 607 415.350159 528.649841 337 432 337 C 335.350159 337 257 415.350159 257 512 C 257 608.649841 335.350159 687 432 687 C 528.649841 687 607 608.649841 607 512 Z"/>
        <linearGradient id="linearGradient3" x1="527.925731" y1="715.997218" x2="527.925731" y2="309.997218" gradientUnits="userSpaceOnUse">
            <stop offset="0" stop-color="#b8dc6a" stop-opacity="1"/>
            <stop offset="1" stop-color="#e3ffa6" stop-opacity="1"/>
        </linearGradient>
        <path id="Ellipse-copy-3" fill="url(#linearGradient3)" fill-rule="evenodd" stroke="none" opacity="0.55" style="mix-blend-mode:multiply" d="M 687 512 C 687 415.350159 608.649841 337 512 337 C 415.350159 337 337 415.350159 337 512 C 337 608.649841 415.350159 687 512 687 C 608.649841 687 687 608.649841 687 512 Z"/>
        <linearGradient id="linearGradient4" x1="609.092398" y1="712.497218" x2="609.092398" y2="311.163885" gradientUnits="userSpaceOnUse">
            <stop offset="0" stop-color="#dcc16a" stop-opacity="1"/>
            <stop offset="1" stop-color="#ffe695" stop-opacity="1"/>
        </linearGradient>
        <path id="Ellipse-copy-2" fill="url(#linearGradient4)" fill-rule="evenodd" stroke="none" opacity="0.7" style="mix-blend-mode:multiply" d="M 767 512 C 767 415.350159 688.649841 337 592 337 C 495.350159 337 417 415.350159 417 512 C 417 608.649841 495.350159 687 592 687 C 688.649841 687 767 608.649841 767 512 Z"/>
        <linearGradient id="linearGradient5" x1="650.479793" y1="703.375635" x2="650.479793" y2="333.542301" gradientUnits="userSpaceOnUse">
            <stop offset="0" stop-color="#ff453a" stop-opacity="1"/>
            <stop offset="1" stop-color="#ff776f" stop-opacity="1"/>
        </linearGradient>
        <path id="Oval" fill="url(#linearGradient5)" fill-rule="evenodd" stroke="none" style="mix-blend-mode:darken" d="M 847 512 C 847 415.350159 768.649841 337 672 337 C 575.350159 337 497 415.350159 497 512 C 497 608.649841 575.350159 687 672 687 C 768.649841 687 847 608.649841 847 512 Z"/>
    </g>
</svg>
